<svg width="505" height="504" viewBox="0 0 505 504" fill="none" xmlns="http://www.w3.org/2000/svg">
<path d="M263.18 482.36C396.38 482.36 504.36 374.38 504.36 241.18C504.36 107.98 396.38 0 263.18 0C129.98 0 22 107.98 22 241.18C22 374.38 129.98 482.36 263.18 482.36Z" fill="url(#paint0_radial_862_12529)"/>
<g style="mix-blend-mode:soft-light">
<path d="M263.18 482.54C396.38 482.54 504.36 374.56 504.36 241.36C504.36 108.16 396.38 0.179932 263.18 0.179932C129.98 0.179932 22 108.16 22 241.36C22 374.56 129.98 482.54 263.18 482.54Z" fill="url(#paint1_radial_862_12529)"/>
</g>
<g style="mix-blend-mode:soft-light">
<path d="M263.18 482.54C396.38 482.54 504.36 374.56 504.36 241.36C504.36 108.16 396.38 0.179932 263.18 0.179932C129.98 0.179932 22 108.16 22 241.36C22 374.56 129.98 482.54 263.18 482.54Z" fill="url(#paint2_radial_862_12529)"/>
</g>
<g style="mix-blend-mode:soft-light">
<path d="M263.18 482.54C396.38 482.54 504.36 374.56 504.36 241.36C504.36 108.16 396.38 0.179932 263.18 0.179932C129.98 0.179932 22 108.16 22 241.36C22 374.56 129.98 482.54 263.18 482.54Z" fill="url(#paint3_radial_862_12529)" fill-opacity="0.7"/>
</g>
<mask id="mask0_862_12529" style="mask-type:alpha" maskUnits="userSpaceOnUse" x="22" y="0" width="483" height="483">
<path d="M263.18 482.54C396.38 482.54 504.36 374.56 504.36 241.36C504.36 108.16 396.38 0.179932 263.18 0.179932C129.98 0.179932 22 108.16 22 241.36C22 374.56 129.98 482.54 263.18 482.54Z" fill="white"/>
</mask>
<g mask="url(#mask0_862_12529)">
<g filter="url(#filter0_f_862_12529)">
<path d="M20.6241 234.479C20.886 231.052 22.0137 230.709 22.3426 234.188C22.7081 238.054 21.9977 245.826 22.1687 250.514C22.6216 262.928 24.5244 273.721 26.486 282.5C32.8075 310.792 41.5617 329.022 49.7268 344.468C76.5663 395.24 105.967 420.95 134.648 440.327C176.689 468.729 219.072 477.764 261.49 479.68C262.56 479.728 262.738 486.698 261.686 487.605C259.788 489.241 257.436 487.617 255.494 487.549C249.915 487.354 244.335 486.971 238.756 486.391C222.213 484.672 205.67 481.171 189.162 475.538C144.275 460.224 95.8765 434.001 53.6092 360.142C50.9502 355.496 48.3124 350.604 45.7118 345.347C43.6321 341.143 41.5726 336.736 39.5493 332.023C32.8946 316.521 17.3868 276.838 20.6241 234.479ZM261.52 487.68C260.499 487.711 260.241 481.214 261.214 479.865C262.684 477.827 264.888 479.505 266.439 479.409C272.877 479.006 279.314 478.409 285.75 477.601C303.395 475.385 321.028 471.602 338.621 465.776C382.257 451.325 429.17 429.295 470.305 361.611C472.923 357.303 475.518 352.733 478.079 347.821C485.86 332.892 505.361 293.264 503.107 244.001C502.917 239.848 504.181 237.361 504.747 240.923C505.467 245.459 505.175 254.916 504.977 259.948C504.341 276.063 501.866 289.691 499.257 300.698C490.987 335.579 479.376 355.803 468.744 372.689C434.184 427.577 396.648 449.704 360.155 465.604C327.424 479.865 294.444 486.663 261.52 487.68Z" fill="#401C02"/>
</g>
<g filter="url(#filter1_f_862_12529)">
<path d="M20.6241 234.479C20.886 231.052 22.0137 230.709 22.3426 234.188C22.7081 238.054 21.9977 245.826 22.1687 250.514C22.6216 262.928 24.5244 273.721 26.486 282.5C32.8075 310.792 41.5617 329.022 49.7268 344.468C76.5663 395.24 105.967 420.95 134.648 440.327C176.689 468.729 219.072 477.764 261.49 479.68C262.56 479.728 262.738 486.698 261.686 487.605C259.788 489.241 257.436 487.617 255.494 487.549C249.915 487.354 244.335 486.971 238.756 486.391C222.213 484.672 205.67 481.171 189.162 475.538C144.275 460.224 95.8765 434.001 53.6092 360.142C50.9502 355.496 48.3124 350.604 45.7118 345.347C43.6321 341.143 41.5726 336.736 39.5493 332.023C32.8946 316.521 17.3868 276.838 20.6241 234.479ZM261.52 487.68C260.499 487.711 260.241 481.214 261.214 479.865C262.684 477.827 264.888 479.505 266.439 479.409C272.877 479.006 279.314 478.409 285.75 477.601C303.395 475.385 321.028 471.602 338.621 465.776C382.257 451.325 429.17 429.295 470.305 361.611C472.923 357.303 475.518 352.733 478.079 347.821C485.86 332.892 505.361 293.264 503.107 244.001C502.917 239.848 504.181 237.361 504.747 240.923C505.467 245.459 505.175 254.916 504.977 259.948C504.341 276.063 501.866 289.691 499.257 300.698C490.987 335.579 479.376 355.803 468.744 372.689C434.184 427.577 396.648 449.704 360.155 465.604C327.424 479.865 294.444 486.663 261.52 487.68Z" fill="#401C02"/>
</g>
</g>
<path d="M195.923 292.38C210.597 292.38 222.493 277.672 222.493 259.53C222.493 241.387 210.597 226.68 195.923 226.68C181.248 226.68 169.353 241.387 169.353 259.53C169.353 277.672 181.248 292.38 195.923 292.38Z" fill="url(#paint4_radial_862_12529)"/>
<path d="M195.923 292.38C210.597 292.38 222.493 277.672 222.493 259.53C222.493 241.387 210.597 226.68 195.923 226.68C181.248 226.68 169.353 241.387 169.353 259.53C169.353 277.672 181.248 292.38 195.923 292.38Z" stroke="url(#paint5_radial_862_12529)" stroke-width="2" stroke-miterlimit="10"/>
<path d="M339.883 292.38C354.557 292.38 366.453 277.672 366.453 259.53C366.453 241.387 354.557 226.68 339.883 226.68C325.208 226.68 313.312 241.387 313.312 259.53C313.312 277.672 325.208 292.38 339.883 292.38Z" fill="url(#paint6_radial_862_12529)"/>
<path d="M339.883 292.38C354.557 292.38 366.453 277.672 366.453 259.53C366.453 241.387 354.557 226.68 339.883 226.68C325.208 226.68 313.312 241.387 313.312 259.53C313.312 277.672 325.208 292.38 339.883 292.38Z" stroke="url(#paint7_radial_862_12529)" stroke-width="2" stroke-miterlimit="10"/>
<path d="M182.793 113.35C178.393 122.04 150.053 173.49 100.793 164.72C99.2467 164.477 97.8297 163.713 96.7768 162.554C95.7238 161.396 95.0981 159.913 95.0032 158.35C94.9432 156.41 95.7232 154.35 98.4832 152.98C110.403 146.98 138.353 150.76 167.173 117.63C169.661 114.722 171.997 111.688 174.173 108.54C175.763 106.3 178.513 103.27 181.343 104.31C183.753 105.19 184.143 107.5 184.003 109.38C183.87 110.771 183.458 112.121 182.793 113.35Z" fill="#42210B"/>
<path d="M342.973 113.35C347.373 122.04 375.713 173.49 424.973 164.72C426.52 164.477 427.937 163.713 428.99 162.554C430.043 161.396 430.668 159.913 430.763 158.35C430.823 156.41 430.043 154.35 427.283 152.98C415.363 146.98 387.413 150.76 358.593 117.63C356.106 114.722 353.769 111.688 351.593 108.54C350.013 106.3 347.253 103.27 344.423 104.31C342.013 105.19 341.623 107.5 341.763 109.38C341.897 110.771 342.308 112.121 342.973 113.35Z" fill="#42210B"/>
<mask id="path-14-outside-1_862_12529" maskUnits="userSpaceOnUse" x="192.503" y="342.49" width="151" height="64" fill="black">
<rect fill="white" x="192.503" y="342.49" width="151" height="64"/>
<path d="M194.503 394.14C194.503 366.72 227.363 344.49 267.903 344.49C308.443 344.49 341.303 366.72 341.303 394.14C341.303 395.02 341.303 395.89 341.203 396.76C319.703 401.11 294.653 403.6 267.903 403.6C241.153 403.6 216.093 401.11 194.603 396.76C194.533 395.89 194.503 395.02 194.503 394.14Z"/>
</mask>
<path d="M341.203 396.76L341.6 398.72L343.024 398.432L343.19 396.988L341.203 396.76ZM194.603 396.76L192.609 396.92L192.73 398.421L194.206 398.72L194.603 396.76ZM196.503 394.14C196.503 381.293 204.2 369.43 217.121 360.689C230.031 351.956 247.979 346.49 267.903 346.49V342.49C247.287 342.49 228.535 348.139 214.88 357.376C201.236 366.605 192.503 379.567 192.503 394.14H196.503ZM267.903 346.49C287.827 346.49 305.775 351.956 318.685 360.689C331.606 369.43 339.303 381.293 339.303 394.14H343.303C343.303 379.567 334.57 366.605 320.926 357.376C307.271 348.139 288.519 342.49 267.903 342.49V346.49ZM339.303 394.14C339.303 395.039 339.301 395.794 339.216 396.532L343.19 396.988C343.305 395.986 343.303 395.001 343.303 394.14H339.303ZM340.806 394.8C319.45 399.121 294.534 401.6 267.903 401.6V405.6C294.772 405.6 319.956 403.099 341.6 398.72L340.806 394.8ZM267.903 401.6C241.272 401.6 216.346 399.121 195 394.8L194.206 398.72C215.84 403.099 241.034 405.6 267.903 405.6V401.6ZM196.596 396.6C196.531 395.79 196.503 394.974 196.503 394.14H192.503C192.503 395.065 192.534 395.99 192.609 396.92L196.596 396.6Z" fill="url(#paint8_linear_862_12529)" mask="url(#path-14-outside-1_862_12529)"/>
<path d="M194.503 394.14C194.503 366.72 227.363 344.49 267.903 344.49C308.443 344.49 341.303 366.72 341.303 394.14C341.303 395.02 341.303 395.89 341.203 396.76C319.703 401.11 294.653 403.6 267.903 403.6C241.153 403.6 216.093 401.11 194.603 396.76C194.533 395.89 194.503 395.02 194.503 394.14Z" fill="url(#paint9_radial_862_12529)"/>
<mask id="mask1_862_12529" style="mask-type:alpha" maskUnits="userSpaceOnUse" x="22" y="0" width="483" height="483">
<path d="M263.18 482.54C396.38 482.54 504.36 374.56 504.36 241.36C504.36 108.16 396.38 0.179932 263.18 0.179932C129.98 0.179932 22 108.16 22 241.36C22 374.56 129.98 482.54 263.18 482.54Z" fill="url(#paint10_radial_862_12529)"/>
</mask>
<g mask="url(#mask1_862_12529)">
<mask id="mask2_862_12529" style="mask-type:alpha" maskUnits="userSpaceOnUse" x="194" y="344" width="148" height="160">
<path d="M194.502 394.14C194.502 366.72 227.362 344.49 267.902 344.49C308.442 344.49 341.302 366.72 341.302 394.14C341.302 439.6 341.202 468.2 341.202 503.2C296.723 503.2 303.612 503.2 276.862 503.2C250.112 503.2 225.223 503.72 194.673 503.72C194.673 481.85 194.502 395.02 194.502 394.14Z" fill="url(#paint11_radial_862_12529)"/>
</mask>
<g mask="url(#mask2_862_12529)">
<g filter="url(#filter2_f_862_12529)">
<path d="M210 344.18H325.48V442.18C325.48 456.934 319.619 471.084 309.186 481.516C298.754 491.949 284.604 497.81 269.85 497.81H265.63C250.876 497.81 236.726 491.949 226.294 481.516C215.861 471.084 210 456.934 210 442.18V344.18Z" fill="#42210B" style="mix-blend-mode:multiply"/>
</g>
</g>
<g opacity="0.5">
<mask id="mask3_862_12529" style="mask-type:alpha" maskUnits="userSpaceOnUse" x="194" y="344" width="148" height="160">
<path d="M194.502 394.14C194.502 366.72 227.362 344.49 267.902 344.49C308.442 344.49 341.302 366.72 341.302 394.14C341.302 439.6 341.202 468.2 341.202 503.2C296.723 503.2 303.612 503.2 276.862 503.2C250.112 503.2 225.223 503.72 194.673 503.72C194.673 481.85 194.502 395.02 194.502 394.14Z" fill="url(#paint12_radial_862_12529)"/>
</mask>
<g mask="url(#mask3_862_12529)">
<g filter="url(#filter3_f_862_12529)">
<path d="M210 344.18H325.48V442.18C325.48 456.934 319.619 471.084 309.186 481.516C298.754 491.949 284.604 497.81 269.85 497.81H265.63C250.876 497.81 236.726 491.949 226.294 481.516C215.861 471.084 210 456.934 210 442.18V344.18Z" fill="#42210B" style="mix-blend-mode:multiply"/>
</g>
</g>
</g>
</g>
<mask id="mask4_862_12529" style="mask-type:alpha" maskUnits="userSpaceOnUse" x="194" y="344" width="148" height="160">
<path d="M194.502 394.14C194.502 366.72 227.362 344.49 267.902 344.49C308.442 344.49 341.302 366.72 341.302 394.14C341.302 439.6 341.202 468.2 341.202 503.2C296.723 503.2 303.612 503.2 276.862 503.2C250.112 503.2 225.223 503.72 194.673 503.72C194.673 481.85 194.502 395.02 194.502 394.14Z" fill="url(#paint13_radial_862_12529)"/>
</mask>
<g mask="url(#mask4_862_12529)">
<path d="M210.163 343.7H325.643V441.7C325.643 456.454 319.782 470.604 309.349 481.036C298.917 491.469 284.767 497.33 270.013 497.33H265.793C251.039 497.33 236.889 491.469 226.457 481.036C216.024 470.604 210.163 456.454 210.163 441.7V343.7Z" fill="#D86B9B"/>
<path d="M210.163 343.7H325.643V441.7C325.643 456.454 319.782 470.604 309.349 481.036C298.917 491.469 284.767 497.33 270.013 497.33H265.793C251.039 497.33 236.889 491.469 226.457 481.036C216.024 470.604 210.163 456.454 210.163 441.7V343.7Z" fill="url(#paint14_radial_862_12529)"/>
<path style="mix-blend-mode:multiply" opacity="0.6" d="M210.163 343.7H325.643V441.7C325.643 456.454 319.782 470.604 309.349 481.036C298.917 491.469 284.767 497.33 270.013 497.33H265.793C251.039 497.33 236.889 491.469 226.457 481.036C216.024 470.604 210.163 456.454 210.163 441.7V343.7Z" fill="url(#paint15_radial_862_12529)"/>
<g style="mix-blend-mode:soft-light" opacity="0.6">
<path d="M210.163 343.7H325.643V441.7C325.643 456.454 319.782 470.604 309.349 481.036C298.917 491.469 284.767 497.33 270.013 497.33H265.793C251.039 497.33 236.889 491.469 226.457 481.036C216.024 470.604 210.163 456.454 210.163 441.7V343.7Z" fill="url(#paint16_radial_862_12529)" style="mix-blend-mode:multiply"/>
</g>
<path style="mix-blend-mode:multiply" d="M210.163 343.73H325.643V441.73C325.643 456.484 319.782 470.634 309.349 481.067C298.917 491.499 284.767 497.36 270.013 497.36H265.793C251.039 497.36 236.889 491.499 226.457 481.067C216.024 470.634 210.163 456.484 210.163 441.73V343.73Z" fill="url(#paint17_radial_862_12529)"/>
<g filter="url(#filter4_f_862_12529)">
<rect x="264" y="388" width="8" height="47" fill="url(#paint18_radial_862_12529)" fill-opacity="0.6" style="mix-blend-mode:multiply"/>
</g>
</g>
<path d="M194.503 394.14C194.503 366.72 227.363 344.49 267.903 344.49C308.443 344.49 341.303 366.72 341.303 394.14C341.303 395.02 341.303 395.89 341.203 396.76C319.703 401.11 294.653 403.6 267.903 403.6C241.153 403.6 216.093 401.11 194.603 396.76C194.533 395.89 194.503 395.02 194.503 394.14Z" fill="url(#paint19_linear_862_12529)"/>
<mask id="mask5_862_12529" style="mask-type:alpha" maskUnits="userSpaceOnUse" x="22" y="0" width="483" height="483">
<path d="M263.18 482.54C396.38 482.54 504.36 374.56 504.36 241.36C504.36 108.16 396.38 0.179932 263.18 0.179932C129.98 0.179932 22 108.16 22 241.36C22 374.56 129.98 482.54 263.18 482.54Z" fill="url(#paint20_radial_862_12529)"/>
</mask>
<g mask="url(#mask5_862_12529)">
<g style="mix-blend-mode:multiply" filter="url(#filter5_f_862_12529)">
<path d="M20.0024 375.92C19.5724 343.3 77.4624 254.17 77.4624 254.17C77.4624 254.17 137.682 341.7 138.122 374.32C138.139 389.859 132.033 404.779 121.126 415.847C110.219 426.914 95.39 433.239 79.8525 433.449C64.315 433.66 49.3204 427.739 38.1176 416.971C26.9149 406.203 20.4064 391.454 20.0024 375.92Z" fill="#282828" fill-opacity="0.7"/>
</g>
</g>
<path d="M5.00238 359.92C4.57238 327.3 62.4624 238.17 62.4624 238.17C62.4624 238.17 122.682 325.7 123.122 358.32C123.139 373.859 117.033 388.779 106.126 399.846C95.2187 410.914 80.39 417.238 64.8525 417.449C49.315 417.659 34.3204 411.739 23.1176 400.971C11.9149 390.202 5.40635 375.454 5.00238 359.92Z" fill="url(#paint21_linear_862_12529)"/>
<mask id="mask6_862_12529" style="mask-type:alpha" maskUnits="userSpaceOnUse" x="5" y="238" width="119" height="180">
<path d="M5.00238 359.92C4.57238 327.3 62.4624 238.17 62.4624 238.17C62.4624 238.17 122.682 325.7 123.122 358.32C123.139 373.859 117.033 388.779 106.126 399.846C95.2187 410.914 80.39 417.238 64.8525 417.449C49.315 417.659 34.3204 411.739 23.1176 400.971C11.9149 390.202 5.40635 375.454 5.00238 359.92Z" fill="url(#paint22_linear_862_12529)"/>
</mask>
<g mask="url(#mask6_862_12529)">
<g filter="url(#filter6_f_862_12529)">
<path d="M61.9982 426.18C-9.50312 426.18 -17.4996 351.68 3.00012 333.68C3.00012 350.18 11.0002 404.18 61.9982 404.18C106.5 404.18 127.5 358.18 125 333.68C150 351.18 133.5 426.18 61.9982 426.18Z" fill="#7CD3FF"/>
</g>
</g>
<g filter="url(#filter7_f_862_12529)">
<path d="M40.001 346.484C39.8262 327.38 63.3503 275.18 63.3503 275.18C63.3503 275.18 87.8212 326.443 88 345.547C88.0069 354.648 85.5254 363.386 81.0933 369.868C76.6611 376.35 70.6353 380.053 64.3215 380.177C58.0078 380.3 51.9146 376.833 47.3622 370.526C42.8099 364.22 40.1651 355.582 40.001 346.484Z" fill="white"/>
</g>
<defs>
<filter id="filter0_f_862_12529" x="-4.81494" y="206.738" width="535.022" height="306.595" filterUnits="userSpaceOnUse" color-interpolation-filters="sRGB">
<feFlood flood-opacity="0" result="BackgroundImageFix"/>
<feBlend mode="normal" in="SourceGraphic" in2="BackgroundImageFix" result="shape"/>
<feGaussianBlur stdDeviation="12.5" result="effect1_foregroundBlur_862_12529"/>
</filter>
<filter id="filter1_f_862_12529" x="-19.8149" y="191.738" width="565.022" height="336.595" filterUnits="userSpaceOnUse" color-interpolation-filters="sRGB">
<feFlood flood-opacity="0" result="BackgroundImageFix"/>
<feBlend mode="normal" in="SourceGraphic" in2="BackgroundImageFix" result="shape"/>
<feGaussianBlur stdDeviation="20" result="effect1_foregroundBlur_862_12529"/>
</filter>
<filter id="filter2_f_862_12529" x="195" y="329.18" width="145.48" height="183.63" filterUnits="userSpaceOnUse" color-interpolation-filters="sRGB">
<feFlood flood-opacity="0" result="BackgroundImageFix"/>
<feBlend mode="normal" in="SourceGraphic" in2="BackgroundImageFix" result="shape"/>
<feGaussianBlur stdDeviation="7.5" result="effect1_foregroundBlur_862_12529"/>
</filter>
<filter id="filter3_f_862_12529" x="195" y="329.18" width="145.48" height="183.63" filterUnits="userSpaceOnUse" color-interpolation-filters="sRGB">
<feFlood flood-opacity="0" result="BackgroundImageFix"/>
<feBlend mode="normal" in="SourceGraphic" in2="BackgroundImageFix" result="shape"/>
<feGaussianBlur stdDeviation="7.5" result="effect1_foregroundBlur_862_12529"/>
</filter>
<filter id="filter4_f_862_12529" x="249" y="373" width="38" height="77" filterUnits="userSpaceOnUse" color-interpolation-filters="sRGB">
<feFlood flood-opacity="0" result="BackgroundImageFix"/>
<feBlend mode="normal" in="SourceGraphic" in2="BackgroundImageFix" result="shape"/>
<feGaussianBlur stdDeviation="7.5" result="effect1_foregroundBlur_862_12529"/>
</filter>
<filter id="filter5_f_862_12529" x="-15" y="219.17" width="188.122" height="249.284" filterUnits="userSpaceOnUse" color-interpolation-filters="sRGB">
<feFlood flood-opacity="0" result="BackgroundImageFix"/>
<feBlend mode="normal" in="SourceGraphic" in2="BackgroundImageFix" result="shape"/>
<feGaussianBlur stdDeviation="17.5" result="effect1_foregroundBlur_862_12529"/>
</filter>
<filter id="filter6_f_862_12529" x="-22.8116" y="317.68" width="174.763" height="124.5" filterUnits="userSpaceOnUse" color-interpolation-filters="sRGB">
<feFlood flood-opacity="0" result="BackgroundImageFix"/>
<feBlend mode="normal" in="SourceGraphic" in2="BackgroundImageFix" result="shape"/>
<feGaussianBlur stdDeviation="8" result="effect1_foregroundBlur_862_12529"/>
</filter>
<filter id="filter7_f_862_12529" x="0" y="235.18" width="128" height="185" filterUnits="userSpaceOnUse" color-interpolation-filters="sRGB">
<feFlood flood-opacity="0" result="BackgroundImageFix"/>
<feBlend mode="normal" in="SourceGraphic" in2="BackgroundImageFix" result="shape"/>
<feGaussianBlur stdDeviation="20" result="effect1_foregroundBlur_862_12529"/>
</filter>
<radialGradient id="paint0_radial_862_12529" cx="0" cy="0" r="1" gradientUnits="userSpaceOnUse" gradientTransform="translate(263.18 241.17) scale(241.18)">
<stop stop-color="#FF8229"/>
<stop offset="0.31" stop-color="#FF8025"/>
<stop offset="0.63" stop-color="#FF7818"/>
<stop offset="0.95" stop-color="#FF6C04"/>
<stop offset="1" stop-color="#FF6A00"/>
</radialGradient>
<radialGradient id="paint1_radial_862_12529" cx="0" cy="0" r="1" gradientUnits="userSpaceOnUse" gradientTransform="translate(263 64.6799) rotate(90) scale(417.5)">
<stop stop-color="white" stop-opacity="0.5"/>
<stop offset="0.782278"/>
</radialGradient>
<radialGradient id="paint2_radial_862_12529" cx="0" cy="0" r="1" gradientUnits="userSpaceOnUse" gradientTransform="translate(263 64.6799) rotate(90) scale(417.5)">
<stop stop-color="white" stop-opacity="0.5"/>
<stop offset="0.782278"/>
</radialGradient>
<radialGradient id="paint3_radial_862_12529" cx="0" cy="0" r="1" gradientUnits="userSpaceOnUse" gradientTransform="translate(263 -52.3201) rotate(90) scale(534.5 722.835)">
<stop offset="0.0922635" stop-color="#FF0000"/>
<stop offset="0.670207" stop-color="white" stop-opacity="0"/>
</radialGradient>
<radialGradient id="paint4_radial_862_12529" cx="0" cy="0" r="1" gradientUnits="userSpaceOnUse" gradientTransform="translate(195.886 259.508) scale(33.8703 32.907)">
<stop stop-color="#6A2700"/>
<stop offset="1" stop-color="#391800"/>
</radialGradient>
<radialGradient id="paint5_radial_862_12529" cx="0" cy="0" r="1" gradientUnits="userSpaceOnUse" gradientTransform="translate(1.03408e+06 15017.3) rotate(180) scale(1834.39 2267.96)">
<stop stop-color="#FF9143"/>
<stop offset="0.24" stop-color="#FF8F3F"/>
<stop offset="0.49" stop-color="#FF8732"/>
<stop offset="0.74" stop-color="#FF7B1E"/>
<stop offset="0.99" stop-color="#FF6A01"/>
<stop offset="1" stop-color="#FF6A00"/>
</radialGradient>
<radialGradient id="paint6_radial_862_12529" cx="0" cy="0" r="1" gradientUnits="userSpaceOnUse" gradientTransform="translate(339.846 259.508) scale(33.8703 32.907)">
<stop stop-color="#6A2700"/>
<stop offset="1" stop-color="#391800"/>
</radialGradient>
<radialGradient id="paint7_radial_862_12529" cx="0" cy="0" r="1" gradientUnits="userSpaceOnUse" gradientTransform="translate(1.03422e+06 15017.3) rotate(180) scale(1834.39 2267.96)">
<stop stop-color="#FF9143"/>
<stop offset="0.24" stop-color="#FF8F3F"/>
<stop offset="0.49" stop-color="#FF8732"/>
<stop offset="0.74" stop-color="#FF7B1E"/>
<stop offset="0.99" stop-color="#FF6A01"/>
<stop offset="1" stop-color="#FF6A00"/>
</radialGradient>
<linearGradient id="paint8_linear_862_12529" x1="2.86146e+06" y1="13651.6" x2="2.85132e+06" y2="13651.6" gradientUnits="userSpaceOnUse">
<stop stop-color="#B41010"/>
<stop offset="1" stop-color="#FF3D00"/>
</linearGradient>
<radialGradient id="paint9_radial_862_12529" cx="0" cy="0" r="1" gradientUnits="userSpaceOnUse" gradientTransform="translate(267.903 374.06) scale(55.95 55.95)">
<stop stop-color="#743C1C"/>
<stop offset="1" stop-color="#401C02"/>
</radialGradient>
<radialGradient id="paint10_radial_862_12529" cx="0" cy="0" r="1" gradientUnits="userSpaceOnUse" gradientTransform="translate(263.18 241.35) scale(241.18)">
<stop stop-color="#FF8229"/>
<stop offset="0.31" stop-color="#FF8025"/>
<stop offset="0.63" stop-color="#FF7818"/>
<stop offset="0.95" stop-color="#FF6C04"/>
<stop offset="1" stop-color="#FF6A00"/>
</radialGradient>
<radialGradient id="paint11_radial_862_12529" cx="0" cy="0" r="1" gradientUnits="userSpaceOnUse" gradientTransform="translate(267.903 374.06) scale(55.95 55.95)">
<stop stop-color="#743C1C"/>
<stop offset="1" stop-color="#401C02"/>
</radialGradient>
<radialGradient id="paint12_radial_862_12529" cx="0" cy="0" r="1" gradientUnits="userSpaceOnUse" gradientTransform="translate(267.903 374.06) scale(55.95 55.95)">
<stop stop-color="#743C1C"/>
<stop offset="1" stop-color="#401C02"/>
</radialGradient>
<radialGradient id="paint13_radial_862_12529" cx="0" cy="0" r="1" gradientUnits="userSpaceOnUse" gradientTransform="translate(267.903 374.06) scale(55.95 55.95)">
<stop stop-color="#743C1C"/>
<stop offset="1" stop-color="#401C02"/>
</radialGradient>
<radialGradient id="paint14_radial_862_12529" cx="0" cy="0" r="1" gradientUnits="userSpaceOnUse" gradientTransform="translate(269.54 408.332) scale(72.171 86.022)">
<stop offset="0.3" stop-color="#F076AC"/>
<stop offset="0.48" stop-color="#ED73A9"/>
<stop offset="0.62" stop-color="#E2699F"/>
<stop offset="0.76" stop-color="#D1588E"/>
<stop offset="0.89" stop-color="#B94176"/>
<stop offset="1" stop-color="#E182B7"/>
</radialGradient>
<radialGradient id="paint15_radial_862_12529" cx="0" cy="0" r="1" gradientUnits="userSpaceOnUse" gradientTransform="translate(269.54 408.332) scale(72.171 86.022)">
<stop offset="0.3" stop-color="#F076AC"/>
<stop offset="0.48" stop-color="#ED73A9"/>
<stop offset="0.62" stop-color="#E2699F"/>
<stop offset="0.76" stop-color="#D1588E"/>
<stop offset="0.89" stop-color="#B94176"/>
<stop offset="1" stop-color="#E182B7"/>
</radialGradient>
<radialGradient id="paint16_radial_862_12529" cx="0" cy="0" r="1" gradientUnits="userSpaceOnUse" gradientTransform="translate(269.54 408.332) scale(72.171 86.022)">
<stop offset="0.3" stop-color="#F076AC"/>
<stop offset="0.48" stop-color="#ED73A9"/>
<stop offset="0.62" stop-color="#E2699F"/>
<stop offset="0.76" stop-color="#D1588E"/>
<stop offset="0.89" stop-color="#B94176"/>
<stop offset="1" stop-color="#E182B7"/>
</radialGradient>
<radialGradient id="paint17_radial_862_12529" cx="0" cy="0" r="1" gradientUnits="userSpaceOnUse" gradientTransform="translate(266.832 421.349) scale(65.808 200.166)">
<stop offset="0.29" stop-color="#D86B9B" stop-opacity="0"/>
<stop offset="0.43" stop-color="#D66A99" stop-opacity="0.03"/>
<stop offset="0.55" stop-color="#CF6795" stop-opacity="0.11"/>
<stop offset="0.66" stop-color="#C4618D" stop-opacity="0.25"/>
<stop offset="0.78" stop-color="#B45A82" stop-opacity="0.44"/>
<stop offset="0.89" stop-color="#A05074" stop-opacity="0.69"/>
<stop offset="1" stop-color="#874462"/>
</radialGradient>
<radialGradient id="paint18_radial_862_12529" cx="0" cy="0" r="1" gradientUnits="userSpaceOnUse" gradientTransform="translate(268.113 407.773) scale(4.99972 26.3167)">
<stop stop-color="#9F1150"/>
<stop offset="1" stop-color="#9F0046"/>
</radialGradient>
<linearGradient id="paint19_linear_862_12529" x1="267.903" y1="403.61" x2="267.903" y2="344.5" gradientUnits="userSpaceOnUse">
<stop stop-color="#401C02" stop-opacity="0"/>
<stop offset="0.25" stop-color="#401D03" stop-opacity="0.1"/>
<stop offset="0.734375" stop-color="#42200A" stop-opacity="0.9"/>
<stop offset="0.947917" stop-color="#42210B"/>
</linearGradient>
<radialGradient id="paint20_radial_862_12529" cx="0" cy="0" r="1" gradientUnits="userSpaceOnUse" gradientTransform="translate(263 0.179927) rotate(90) scale(482)">
<stop stop-color="#FFDE43"/>
<stop offset="1" stop-color="#FFBC00"/>
</radialGradient>
<linearGradient id="paint21_linear_862_12529" x1="69.2881" y1="428.625" x2="67.488" y2="248.615" gradientUnits="userSpaceOnUse">
<stop offset="0.0736292" stop-color="#0048FF"/>
<stop offset="0.223403" stop-color="#006DFF"/>
<stop offset="0.403627" stop-color="#0090FE"/>
<stop offset="0.535088" stop-color="#00ACFE"/>
<stop offset="0.65" stop-color="#00BFFE"/>
<stop offset="0.82" stop-color="#00CBFE"/>
<stop offset="1" stop-color="#00CFFE"/>
</linearGradient>
<linearGradient id="paint22_linear_862_12529" x1="69.2881" y1="428.625" x2="67.488" y2="248.615" gradientUnits="userSpaceOnUse">
<stop stop-color="#0048FF"/>
<stop offset="0.14" stop-color="#006DFF"/>
<stop offset="0.31" stop-color="#0090FE"/>
<stop offset="0.48" stop-color="#00ACFE"/>
<stop offset="0.65" stop-color="#00BFFE"/>
<stop offset="0.82" stop-color="#00CBFE"/>
<stop offset="1" stop-color="#00CFFE"/>
</linearGradient>
</defs>
</svg>
